<svg width="96" height="102" viewBox="0 0 96 102" fill="none" xmlns="http://www.w3.org/2000/svg">
<path d="M81.6449 0H14.3551C6.43581 0 0 5.2894 0 11.798V90.202C0 96.7106 6.43581 102 14.3551 102H81.6449C89.5616 102 96 96.7106 96 90.202V11.798C96 5.29154 89.5616 0 81.6449 0ZM91.2148 90.202C91.2148 94.5398 86.9177 98.0672 81.6449 98.0672H14.3551C9.07707 98.0672 4.78517 94.5395 4.78517 90.202V11.798C4.78517 7.46018 9.07744 3.93279 14.3551 3.93279H81.6449C86.9181 3.93279 91.2148 7.46048 91.2148 11.798V90.202ZM12.2618 32.6904H83.7382V11.798H12.2618V32.6904ZM17.0466 15.7308H78.953V28.7579H17.0466V15.7308ZM27.9709 43.3166V48.081C27.9709 49.7876 26.2842 51.1703 24.2099 51.1703H18.4129C16.3363 51.1703 14.6567 49.7879 14.6567 48.081V43.3166C14.6567 41.6118 16.3363 40.2295 18.4129 40.2295H24.2099C26.2842 40.2274 27.9709 41.6118 27.9709 43.3166ZM54.6597 43.3166V48.081C54.6597 49.7858 52.973 51.1703 50.8987 51.1703H45.1039C43.0274 51.1703 41.3451 49.7861 41.3451 48.081V43.3166C41.3451 41.61 43.027 40.2295 45.1039 40.2295H50.8987C52.973 40.2274 54.6597 41.6097 54.6597 43.3166ZM81.3459 43.3166V48.081C81.3459 49.7858 79.6592 51.1703 77.5849 51.1703H71.7901C69.7158 51.1703 68.0291 49.7861 68.0291 48.081V43.3166C68.0291 41.61 69.7158 40.2295 71.7901 40.2295H77.5849C79.6592 40.2274 81.3459 41.6097 81.3459 43.3166ZM27.9709 62.5886V67.353C27.9709 69.0578 26.2842 70.4401 24.2099 70.4401H18.4129C16.3363 70.4401 14.6567 69.0578 14.6567 67.353V62.5886C14.6567 60.8838 16.3363 59.5015 18.4129 59.5015H24.2099C26.2842 59.4997 27.9709 60.882 27.9709 62.5886ZM27.9709 81.8588V86.6213C27.9709 88.328 26.2842 89.7106 24.2099 89.7106H18.4129C16.3363 89.7106 14.6567 88.3283 14.6567 86.6213V81.8588C14.6567 80.15 16.3363 78.7695 18.4129 78.7695H24.2099C26.2842 78.7698 27.9709 80.15 27.9709 81.8588ZM54.6597 62.5868V67.3551C54.6597 69.0581 52.973 70.4404 50.8987 70.4404H45.1039C43.0274 70.4404 41.3451 69.0581 41.3451 67.3551V62.5868C41.3451 60.882 43.027 59.4997 45.1039 59.4997H50.8987C52.973 59.4975 54.6597 60.8798 54.6597 62.5868ZM54.6597 81.8569V86.6213C54.6597 88.3261 52.973 89.7106 50.8987 89.7106H45.1039C43.0274 89.7106 41.3451 88.3261 41.3451 86.6213V81.8569C41.3451 80.1503 43.027 78.7677 45.1039 78.7677H50.8987C52.973 78.7677 54.6597 80.15 54.6597 81.8569ZM81.3459 62.5868V67.3551C81.3459 67.361 81.3389 67.3671 81.3389 67.3747V81.8371C81.3389 81.8429 81.3459 81.8527 81.3459 81.8588V86.6232C81.3459 88.328 79.6592 89.7124 77.5849 89.7124H71.7901C69.711 89.7124 68.0291 88.3283 68.0291 86.6232V84.3915V81.8588V67.3551V63.9042V62.5868C68.0291 60.882 69.711 59.4997 71.7901 59.4997H77.5849C79.6592 59.4975 81.3459 60.8798 81.3459 62.5868Z" fill="white"/>
</svg>
