<svg width="96" height="102" viewBox="0 0 96 102" fill="none" xmlns="http://www.w3.org/2000/svg">
<path d="M31.2494 64.5996C26.8835 64.5996 22.1323 67.0745 22.0071 71.4683C21.9194 74.5459 22.5998 79.0798 26.548 82.8714C30.5916 86.7546 37.4123 89.2496 47.9999 89.2496C58.5876 89.2496 65.4083 86.7546 69.4519 82.8714C73.4001 79.0798 74.0803 74.5459 73.993 71.4683C73.8676 67.0745 69.1164 64.5996 64.7505 64.5996H31.2494Z" fill="white"/>
<path d="M48 29.75C38.0589 29.75 30 36.0292 30 43.775C30 51.5208 38.0589 57.8 48 57.8C57.9411 57.8 66 51.5208 66 43.775C66 36.0292 57.9411 29.75 48 29.75Z" fill="white"/>
<path d="M74.1147 8.5H81.3333C89.4336 8.5 96 13.7327 96 20.1875V90.3125C96 96.7674 89.4336 102 81.3333 102H14.6667C6.56651 102 0 96.7674 0 90.3125V20.1875C0 13.7327 6.56651 8.5 14.6667 8.5H21.8854C23.6266 3.59444 29.2864 0 36 0H60C66.7136 0 72.3733 3.59444 74.1147 8.5ZM21.8854 13.175H12.5C8.81808 13.175 5.5 17.2535 5.5 20.1875V90.3125C5.5 93.2467 10.9847 98.175 14.6667 98.175H81.3333C85.0155 98.175 91.5 93.2467 91.5 90.3125V20.1875C91.5 17.2535 87.6821 13.175 84 13.175H74.1147C72.3733 18.0806 66.7136 21.675 60 21.675H37C30.2864 21.675 23.6266 18.0806 21.8854 13.175ZM27.5 11.6875C27.5 14.6215 32.3179 18.275 36 18.275H62C65.6821 18.275 68.5 14.6215 68.5 11.6875C68.5 8.75347 65.6821 5.1 62 5.1H34.5C30.8179 5.1 27.5 8.75347 27.5 11.6875Z" fill="white"/>
</svg>
