<svg width="96" height="102" viewBox="0 0 96 102" fill="none" xmlns="http://www.w3.org/2000/svg">
<path d="M95.5713 43.1804L92.7354 33.4531C92.2308 31.7259 90.4525 30.741 88.7657 31.2573C87.0773 31.7719 86.1163 33.5894 86.6193 35.3166L89.4553 45.0456C89.7335 45.9933 89.6644 46.8171 89.2652 47.3669C88.8642 47.915 88.1143 48.2174 87.1465 48.2174H8.85543C7.88934 48.2174 7.13591 47.915 6.7367 47.3669C6.33749 46.8171 6.26836 45.9931 6.54488 45.0456L10.8972 30.1118H24.1489C27.5357 35.0492 33.1412 38.2833 39.4723 38.2833C42.9209 38.2833 46.1537 37.3229 48.9306 35.6512C51.6406 37.3587 54.7813 38.2833 57.9864 38.2833C64.0922 38.2833 69.4658 35.0215 72.5329 30.1118H87.4781C89.2409 30.1118 90.6683 28.6498 90.6683 26.8483C90.6683 25.0468 89.2409 23.5847 87.4781 23.5847H74.9957C75.1548 22.6237 75.2387 21.637 75.2389 20.6306C75.2389 10.8963 67.5018 2.97768 57.988 2.97768C55.6317 2.97768 53.3842 3.46396 51.3362 4.3429C48.0118 1.55946 43.8028 0 39.4723 0C29.1567 0 20.7628 8.58699 20.7628 19.1416C20.7628 20.6708 20.94 22.1582 21.2726 23.5845H8.53451C7.1548 23.578 5.87655 24.4932 5.46118 25.9148L0.428605 43.1824C-0.425119 46.1118 0.00875312 49.059 1.62098 51.2689C3.23164 53.4788 5.8672 54.7465 8.85524 54.7465H87.1461C90.1323 54.7465 92.7697 53.4771 94.3803 51.2672C95.9912 49.0571 96.4251 46.1099 95.5713 43.1804ZM39.4723 6.52909C41.7067 6.52909 43.8357 7.12893 45.7009 8.25012C42.6313 11.4386 40.7338 15.8115 40.7338 20.6302C40.7338 22.6827 41.0777 24.7035 41.7602 26.6341C42.3565 28.3315 44.1849 29.2082 45.844 28.5966C47.5014 27.9848 48.3602 26.1144 47.7606 24.4189C47.332 23.2007 47.1126 21.9243 47.1126 20.6302C47.1126 14.4971 51.9895 9.50617 57.9864 9.50617C63.9816 9.50617 68.8586 14.4953 68.8586 20.6302C68.8586 22.2769 68.5043 23.8395 67.8744 25.247C67.8066 25.3699 67.7464 25.4976 67.6944 25.6297C65.9019 29.2588 62.2251 31.7542 57.9866 31.7542C56.6406 31.7542 55.3408 31.5077 54.1227 31.0336C56.6624 27.7653 58.182 23.632 58.182 19.1416C58.182 17.3453 57.9383 15.5669 57.4579 13.8537C56.9723 12.1211 55.213 11.1204 53.5108 11.6173C51.8172 12.1159 50.839 13.9226 51.3247 15.6554C51.641 16.7833 51.8016 17.9555 51.8016 19.1418C51.8016 26.097 46.2713 31.7544 39.4727 31.7544C32.6738 31.7544 27.142 26.0969 27.142 19.1418C27.1416 12.1864 32.6734 6.52909 39.4723 6.52909Z" fill="white"/>
<path d="M86.2907 56.6895C84.5279 56.6895 83.1005 58.1515 83.1005 59.9548V95.4712H63.9573V74.4236C63.9573 65.6777 57.0964 59.083 47.9991 59.083C38.9 59.083 32.0391 65.6793 32.0391 74.4236V95.4712H13.041V59.9548C13.041 58.1515 11.6136 56.6895 9.85082 56.6895C8.08806 56.6895 6.66064 58.1515 6.66064 59.9548V98.7347C6.66064 100.538 8.08806 101.998 9.85082 101.998H35.195C35.2067 101.998 35.2178 102 35.2294 102C35.2411 102 35.2522 101.998 35.2639 101.998H51.841C53.6038 101.998 55.033 100.54 55.033 98.7363C55.033 96.9328 53.6055 95.471 51.8428 95.471H38.4198V74.4236C38.4198 68.6406 43.2397 65.6121 48.001 65.6121C52.7588 65.6121 57.5787 68.6406 57.5787 74.4236V98.7347C57.5787 100.538 59.0062 101.998 60.7689 101.998H86.2926C88.0536 101.998 89.4812 100.538 89.4812 98.7363V59.9548C89.481 58.1515 88.0534 56.6895 86.2907 56.6895Z" fill="white"/>
</svg>
