<svg width="109" height="102" viewBox="0 0 109 102" fill="none" xmlns="http://www.w3.org/2000/svg">
<path d="M108.776 62.6647L103.987 50.9998L108.769 39.3286C109.3 38.041 108.878 36.5749 107.733 35.708L97.3585 27.8422L95.2604 15.4953C95.0288 14.1376 93.8843 13.0667 92.4334 12.85L79.2383 10.8867L70.8321 1.17879C69.9056 0.107914 68.3457 -0.280914 66.9628 0.209902L54.4966 4.69099L42.0236 0.216276C40.6475 -0.280914 39.0875 0.107914 38.1611 1.18516L29.7549 10.8931L16.5598 12.8564C15.1088 13.0731 13.9644 14.144 13.7328 15.5017L11.6346 27.8486L1.25977 35.7144C0.115328 36.5813 -0.300212 38.041 0.224322 39.3286L5.00644 50.9998L0.224322 62.6711C-0.300212 63.9586 0.115328 65.4183 1.25977 66.2852L11.6346 74.1511L13.7328 86.4979C13.9644 87.8557 15.1088 88.9265 16.5598 89.1433L29.7549 91.1065L38.1611 100.814C39.0944 101.892 40.6543 102.287 42.0304 101.783L54.4966 97.3087L66.9696 101.783C67.3647 101.924 67.7803 101.994 68.189 101.994C69.1904 101.994 70.1781 101.579 70.8389 100.814L79.2451 91.1065L92.4402 89.1433C93.8912 88.9265 95.0356 87.8557 95.2672 86.4979L97.3653 74.1511L107.74 66.2852C108.885 65.4183 109.3 63.9523 108.776 62.6647ZM97.1474 52.1408L101.514 62.7858L92.0383 69.9632C91.3843 70.4604 90.9483 71.1615 90.8189 71.9392L88.9047 83.2025L76.8676 84.9936C76.0366 85.1147 75.2872 85.5227 74.7559 86.1346L67.099 95.0012L55.7228 90.9153C55.3277 90.7814 54.9121 90.7049 54.4966 90.7049C54.0811 90.7049 53.6655 90.7751 53.2772 90.9153L41.901 95.0012L34.2305 86.1346C33.6992 85.5227 32.9498 85.1147 32.1187 84.9936L20.0817 83.2025L18.1675 71.9392C18.0381 71.1615 17.6021 70.4604 16.9481 69.9632L7.47243 62.7922L11.839 52.1472C12.1387 51.4078 12.1387 50.5919 11.8322 49.8588L7.47243 39.2075L16.9481 32.0301C17.6021 31.5329 18.0381 30.8317 18.1675 30.0541L20.0817 18.7908L32.1187 16.9996C32.9498 16.8785 33.6992 16.4706 34.2305 15.8587L41.8941 6.99846L53.2704 11.0844C54.0538 11.3648 54.9258 11.3648 55.7092 11.0844L67.0854 6.99846L74.7559 15.865C75.2872 16.477 76.0366 16.8849 76.8676 17.006L88.9047 18.7972L90.8189 30.0605C90.9483 30.8381 91.3843 31.5393 92.0383 32.0365L101.514 39.2139L97.1474 49.8588C96.8476 50.5919 96.8476 51.4078 97.1474 52.1408Z" fill="white"/>
<path d="M64.7148 57.374C59.0811 57.374 54.4966 61.6639 54.4966 66.9354C54.4966 72.2069 59.0811 76.4967 64.7148 76.4967C70.3484 76.4967 74.933 72.2069 74.933 66.9354C74.933 61.6639 70.3484 57.374 64.7148 57.374ZM64.7148 70.1225C62.8346 70.1225 61.3087 68.6947 61.3087 66.9354C61.3087 65.1761 62.8346 63.7483 64.7148 63.7483C66.5949 63.7483 68.1208 65.1761 68.1208 66.9354C68.1208 68.6947 66.5949 70.1225 64.7148 70.1225Z" fill="white"/>
<path d="M73.5092 26.1015C71.9833 25.0817 69.8511 25.4131 68.7611 26.841L34.7005 71.4606C33.6037 72.8884 33.9579 74.8836 35.4839 75.9035C36.0833 76.305 36.7782 76.4963 37.4662 76.4963C38.5289 76.4963 39.5779 76.0309 40.2387 75.1641L74.2994 30.5444C75.3962 29.1102 75.0351 27.1214 73.5092 26.1015Z" fill="white"/>
<path d="M44.2783 25.5027C38.6446 25.5027 34.0601 29.7925 34.0601 35.064C34.0601 40.3355 38.6446 44.6254 44.2783 44.6254C49.9119 44.6254 54.4965 40.3355 54.4965 35.064C54.4965 29.7925 49.9119 25.5027 44.2783 25.5027ZM44.2783 38.2512C42.3981 38.2512 40.8722 36.8233 40.8722 35.064C40.8722 33.3048 42.3981 31.8769 44.2783 31.8769C46.1584 31.8769 47.6843 33.3048 47.6843 35.064C47.6843 36.8233 46.1584 38.2512 44.2783 38.2512Z" fill="white"/>
</svg>
